<svg xmlns="http://www.w3.org/2000/svg" width="180" height="58"><path fill="#fff" d="M115.717 45.854c2.886 2.941.244 6.724-2.794 8.206-3.352 1.63-8.625 1.801-11.438-.988-2.237-2.219-2.148-6.001.438-7.88.67-.49 1.614-.704 2.533-.704 3.744-1.165 8.374-1.575 11.26 1.366zm-4.912 2.368c-.13-.598-.643-1.528-1.293-1.758-.763-.28-1.651.236-2.393.527a3.49 3.49 0 01-.496.176c-.689.934-.785 2.238-.413 3.361.225.616.594 1.17 1.076 1.614.454.446.329.394.805.218 1.56-.552 3.082-2.419 2.714-4.138zm22.346-.902c-1.147-.352-4.157-.662-4.647-1.86-.352-.88.4-1.612 1.086-2.145a4.746 4.746 0 011.582-.82c-.449.234-.343.419.317.555 1.123.643 2.988.527 4.218.302.565-.1 2.231-.506 1.104-1.151-2.738-1.568-6.294-1.691-9.316-1.04-1.684.363-6.421 2.2-5.077 4.684 1.204 2.223 6.03 2.295 8.086 3.288 1.118.542 4.282 2.788 2.198 4.005-1.598.931-4.896-.554-6.329-1.2-1.23-.556-2.897-.537-4.21-.302-.464.083-2.329.6-1.102 1.152 3.388 1.526 7.002 2.185 10.712 2.146 1.786-.02 8.285.095 7.687-3.006-.541-2.712-4.07-3.916-6.308-4.609zm-21.561-9.235c-.353.478.254.351-.737.27-.514-.038-1.036-.212-1.547-.284a17.329 17.329 0 00-3.77-.12 16.197 16.197 0 00-6.274 1.821c-1.271.65.55 1.482 1.103 1.626a6.17 6.17 0 004.21-.427c3.912-2.004 9.709 2.232 12.948-2.254.893-1.239-4.87-2.107-5.934-.632zm-51.71 3.592v13.198c0 1.054 6.152 1.072 6.152 0V41.677c.002-1.048-6.152-1.078-6.152 0zm-14.06-3.785l.634 15.583c.086 2.125 6.238 2.067 6.152 0l-.633-15.583c-.084-2.125-6.235-2.067-6.152 0zm18.16-3.696l-3.68-.8c-.942-.206-.464 1.663-.324 2.007.352.853.97 1.976 1.955 2.192l3.691.807c.943.206.464-1.663.324-2.007-.359-.86-.98-1.983-1.965-2.2zM19.37 35.4c4.274-2.475 7.017-3.278 11.426-4.461 1.468-.373.703-4.783-.364-4.395-4.422 1.582-7.36 3.124-11.297 5.79-1.174.786-.826 3.681.235 3.066zM178.6 52.306c-9.945-2.217-18.386-3.553-28.244-4.07v-.101c8.086-1.407 14.841-2.94 22.408-4.623.46.084.88.128.946.133l3.56-1.128.703-.153-.151-.021.942-.3c.719-.62-4.613-.818-5.142-.702-8.358 1.82-15.205 3.487-23.261 4.985v-5.377c0-1.094-6.152-1.117-6.152 0V49.1a.684.684 0 000 .454v5.034c0 1.092 6.152 1.116 6.152 0v-3.885c8.79.49 16.225 1.748 25.137 3.729.995.221 3.475.511 4.219-.441.743-.953-.025-1.442-1.117-1.686zM38.43 54.375a108.337 108.337 0 01-17.04 1.02c-5.076-.107-10.582-.19-15.49-1.62-2.909-.848-6.829-2.92-5.702-6.573 1.181-3.834 7.14-5.634 10.463-6.662a42.087 42.087 0 0114.63-1.776c2.285.12 10.08.13 10.37 3.57.32 3.81-7.857 4.843-10.101 5.325a82.004 82.004 0 01-16.478 1.758c-.54.005-2.475-.09-2.964-.834.04.563.297 1.155.825 1.767 1.951 2.232 6.2 2.095 8.886 2.327 7 .6 14.015.324 20.97-.63 2.635-.361 5.776 1.759 1.631 2.328zM10.6 43.908c-1.572.726-3.844 2.083-4.366 3.782.605-.62 2.28-.687 2.857-.687 2.01-.02 22.073-1.724 20.315-4.975-.455-.842-3.597-.796-4.512-.857a27.525 27.525 0 00-5.063.12 30.46 30.46 0 00-9.223 2.617zm69.332-9.34c4.483-1.145 7.365-2.408 11.913-1.6 1.248.222-.192-3.254-1.631-3.515-4.746-.846-7.79-.86-12.458.332-1.13.293.66 5.171 2.176 4.783z"/><path fill="#fff" d="M140.784 8.397c.36.666.573 1.336.468 1.767-.823 3.341-1.097 4.674-2.122 7.959-1.224 3.922-2.44 9.527-5.492 12.516-2.575 2.52-8.36 2.345-11.68 2.46-5.288.183-12.563-.108-17.85-.096-3.369.007-4.329.663-6.376 3.487-1.219 1.686-7.27 14.356-11.25 17.375-2.143 1.626-5.789 4.47-8.663 3.021-2.913-1.468-4.575-6.941-5.041-9.856-.825-5.154-.709-11.944-.318-17.678-3.706.002-7.413.018-11.119-.026-5.124-.06-8.395-3.885-7.505-9.215.747-4.507 1.668-9.641 5.493-11.807 2.883-1.628 5.602-.747 6.855 2.304.59 1.433.533 2.753.2 4.245-.14.632-.748 1.463-.998 2.316-.383 1.304.675 1.288.832 1.054 1.08-1.624 2.199-5.118 3.956-5.008 1.892.12 3.147 1.674 3.298 3.243.151 1.57.14 4.863-1.016 4.687-1.869-.283.397-5.163-1.774-4.876-1.63.212-2.497 4.535-3.127 4.91-1.895 1.13-3.805.72-4.635-1.203-1.062-2.461 3.424-7.58-.573-8.086-2.271-.288-5.388 11.169-4.219 12.4 2.363 2.485 10.211.376 14.535.376 1.248.001 2.737 2.8 2.607 4.069.047.187.069.38.064.573-1.185 19.622 3.914 24.274 7.516 21.147 3.401-2.954 9.17-14.42 10.536-16.24 1.125-1.499 2.015-3.237 3.548-4.378 3.348-2.487 7.432-1.506 11.341-1.433 4.678.088 11.4.24 16.058-.288 3.724-.42 6.521-1.206 8.202-4.618 2.75-5.572 3.821-10.009 5.259-15.89-2.892-1.725-7.163-4.082-8.965-1.436-1.445 2.12-3.301 17.569-14.778 14.466-2.394-.646-1.99-3.605-1.54-5.735.257-1.222 1.501-2.693.46-2.95-5.127-1.264-4.3 10.07-10.766 9.967-7.07-.114-16.052 2.004-20.304 1.78-1.844-.094-4.193-.038-5.625-1.406-1.577-1.504-1.874-4.487-.839-6.379.782-1.42 2.36-1.622 3.867-1.693a.621.621 0 01.027-.098c.749-1.631 1.863-4.213 3.145-5.534 1.511-1.555 2.374.538 4.032-.037 1.371-.476 1.672-1.643 3.201-.968 1.206.533 2.248 2.129 3.008 3.146 1.11 1.493 3.782 4.138 3.299 6.21-.41 1.741-3.238.943-4.628.85-3.593-.238-7.29.009-10.886.388-.693.067-1.604.086-2.143.594-.23.23-.382.526-.434.846.745.102 19.109.78 24.827-1.746 2.092-.924 3.837-3.969 4.461-6.55.693-2.87 1.914-3.82 6.96-2.942 4.904.86-1.282 8.413 2.188 9.202 3.705.84 6.729-17.83 11.907-16.824 5.193 1.01 13.477 2.41 12.516 7.638zm-57.088 5.796c1.893.065 3.784.212 5.667.34 1.068.073 2.288-.351 3.354-.485h.263c-.16-.212-.269-.671-.432-.879-1.044-1.318-1.364-2.334-3.122-1.406-1.016.54-1.27 1.092-2.473.804-1.623-.382-1.567-1.12-2.677.673-.194.314-.387.63-.58.953z"/></svg>