<svg xmlns="http://www.w3.org/2000/svg" viewBox="0 0 15.32 19.85"><g id="Слой_2" data-name="Слой 2"><path d="M11.73.1a42.6 42.6 0 00-6.84 3.46C3 4.73.15 6.2 0 8.72c-.18 3 2.89 4.75 5.06 6.13l7.09 4.51c.77.49 2.19.9 2.66-.22s-.53-2.43-1.39-3l-6-3.84c-1-.61-1.95-1.21-2.9-1.85a4.73 4.73 0 01-.52-.3c.48.36-.12-.05-.14-.16a4.33 4.33 0 01.34.5c.08.06-.21.36 0-.1A5.37 5.37 0 016 8.74C6.84 8.1 7.75 7.52 8.68 7a41.33 41.33 0 015.87-2.86c2.21-.88-.85-4.79-2.82-4z" fill="#1d1d1b" id="Слой_1-2" data-name="Слой 1"/></g></svg>