<svg xmlns="http://www.w3.org/2000/svg" viewBox="0 0 78.61 69.62"><defs><style>.cls-1{fill:#1d1d1b}</style></defs><g id="Слой_2" data-name="Слой 2"><g id="Слой_1-2" data-name="Слой 1"><path class="cls-1" d="M11.34 25.19l53 .44c3.14 0 3.61-4.84.38-4.87l-53-.44c-3.14 0-3.61 4.84-.38 4.87z"/><path class="cls-1" d="M9.79 25c-.38 11.07 3.29 21.68 5.75 32.32.36 1.54 5.05-.08 4.65-1.86C17.77 45 14.14 34.63 14.51 23.8c.07-1.87-4.66-.46-4.72 1.18zm52.96 0c-1.75 6.59-3.17 13.21-4.31 19.91-.4 2.36 4.52 1.67 4.88-.46 1.14-6.7 2.54-13.32 4.32-19.88.36-1.17-1.45-1.57-2.24-1.51a2.87 2.87 0 00-2.65 2z"/><path class="cls-1" d="M20.33 62.55a129.83 129.83 0 0127.77-1.83c3.22.11 3.22-4.89 0-5a136.44 136.44 0 00-29.1 2 2.5 2.5 0 001.33 4.82z"/><path class="cls-1" d="M75.36 48.81A12.06 12.06 0 0060.8 44c-5.61 2-11.1 6.7-12.36 12.74A10.63 10.63 0 0050 65.06a11.09 11.09 0 007.33 4.18c6.06 1.11 12.4-.15 16.69-4.83a17.67 17.67 0 004.29-8.33c.53-2.58.58-7.33-2.91-7.83a2.67 2.67 0 00-2.31 1.17c-.36.53-.57 1.48.32 1.6 2.38.34 2 4.44 1.63 6A13.54 13.54 0 0172.29 63c-3 3.71-7.82 4.32-12.33 3.61a10.25 10.25 0 01-6.21-2.86 8.7 8.7 0 01-2.26-6.26c.23-4.86 3.87-8.64 8.14-10.55 4.85-2.18 9.87-.27 12.68 4.09.79 1.23 3.87-.91 3-2.18z"/><text transform="translate(57.04 60.77)" font-size="12" stroke="#1d1d1b" stroke-miterlimit="10" stroke-width="2" font-family="Alcotton2Bold,&quot;Alcotton 2&quot;" letter-spacing=".14em" fill="#1d1d1b">2</text><path class="cls-1" d="M3.67 12.18l-1.95 4.4-1 2.2A5.79 5.79 0 000 21.15a3.35 3.35 0 002.89 2.94 12.64 12.64 0 002.68.09h4.75c1.06 0 2.19-.84 1.84-2a3 3 0 00-2.88-2H3.1l.41.13c.83 1.8 1.26 2.32 1.31 1.56v.15l.18-.37c1.08-2.5 2.19-5 3.3-7.5.5-1.11-.57-2.33-1.55-2.71s-2.52-.43-3 .74z"/><path class="cls-1" d="M7.15 14q25.53 2.7 51.23 2.9 7.31 0 14.62-.11l-1.58-1.31a28.43 28.43 0 01-1.83 7.37l2.52-1.46a35.12 35.12 0 01-6.32-.07 3.4 3.4 0 00-3.13 1.48c-.5 1.07.5 1.64 1.44 1.73a43.27 43.27 0 007.55 0 3.24 3.24 0 002.51-1.46 31.44 31.44 0 002.12-8.2c.08-.84-.84-1.33-1.58-1.31q-25.7.55-51.29-1.41-7.29-.57-14.57-1.33a3.36 3.36 0 00-3.13 1.48c-.51 1.08.5 1.63 1.44 1.73z"/><path class="cls-1" d="M14 12.37c4.37-4.07 9.59-7 14.72-10 .9-.52.21-1.27-.48-1.64s-2.5-1-3.41-.52c-5.3 3.11-10.77 6.13-15.31 10.36-.75.7.87 1.55 1.34 1.73.8.3 2.41.77 3.17.07zM49.89 4.4a71.76 71.76 0 0014.9 9.41 2.67 2.67 0 003.3-1.25 2.18 2.18 0 00-1.13-3 60.52 60.52 0 01-7-3.89A70.15 70.15 0 0153.11.73c-2.23-1.83-5.63 1.69-3.22 3.67zM13.78 40.44q20.73-.84 41.47-.58a3.49 3.49 0 002.91-2c.45-1.05-.16-1.79-1.24-1.81q-20.74-.26-41.47.58a3.52 3.52 0 00-2.91 2 1.22 1.22 0 001.24 1.81z"/><path class="cls-1" d="M19.28 24.12c.08 5.54 2.34 10.6 4.44 15.62a41.44 41.44 0 013.7 16.5c0 2.63 4.84 1.57 4.85-.79a42.82 42.82 0 00-3.54-16.69c-2.05-5-4.51-9.95-4.59-15.43 0-2.64-4.89-1.57-4.86.79zm33.25.98c.31 8.12-3 15.83-3 23.93a2.82 2.82 0 002.2 2.77 2 2 0 002.38-1.89c.06-8.09 3.34-15.8 3-23.93a2.85 2.85 0 00-2.2-2.77 2 2 0 00-2.38 1.89zm-13.18-1.04c0 6.28-.13 12.59 0 18.87.12 5 1 10.5-1.15 15.23-.92 2 4 2.51 4.84.71 2.27-4.87 1.5-10.47 1.34-15.66-.2-6.41 0-12.84 0-19.25 0-2.06-5-2-5 .1z"/></g></g></svg>