<svg xmlns="http://www.w3.org/2000/svg" viewBox="0 0 68.76 64.61"><defs><style>.cls-1{fill:#1d1d1b}</style></defs><g id="Слой_2" data-name="Слой 2"><g id="Слой_1-2" data-name="Слой 1"><path class="cls-1" d="M2.55 15.85l58 .49c1 0 2.46-.66 2.45-1.86s-1.56-1.71-2.55-1.72l-58-.48c-1 0-2.46.66-2.45 1.85s1.56 1.71 2.55 1.72z"/><path class="cls-1" d="M.83 16.43a135.24 135.24 0 003.24 35.26c.26 1.15 5-.27 4.72-1.66a133 133 0 01-3.25-34.74c0-1.43-4.66-.15-4.71 1.14zm57.9-.04A86.61 86.61 0 0157 40.53c-.22 1.06 4.69 1.35 5-.18a86.24 86.24 0 001.71-24.14c-.12-1.39-5.11-1.13-5 .18zM8.44 58.37a161.52 161.52 0 0129.62-2.55c3.22 0 3.22-5 0-5a168.17 168.17 0 00-30.95 2.73 2.53 2.53 0 00-1.75 3.08 2.57 2.57 0 003.08 1.74zM18 25.23c-.06-.11-.1-.23-.17-.34-.15-.27 0 .08.07.21 0-.11-.07-.22-.1-.33-.09-.43-.18-.86-.24-1.3 0-.25-.06-.5-.08-.74v-2.54a22.31 22.31 0 012.05-8.7 12.72 12.72 0 016.59-6.59c3.83-1.57 9-1.21 13 .57a17.57 17.57 0 017.23 6.33 22.07 22.07 0 012.24 4.38c.2.51 1.41 3.91 1.06 4.15l.94-.38h-.23a1.48 1.48 0 00-1.2 2.2 3.2 3.2 0 003.1 1.69c4-.61 1.17-7 .22-9.23A25.72 25.72 0 0046 5.78 24.13 24.13 0 0027.46.17a15.38 15.38 0 00-10.85 6.44A22.35 22.35 0 0013 17c-.31 2.64-.63 6.37.78 8.79a3.25 3.25 0 003.1 1.69 1.47 1.47 0 001.2-2.2z"/><path class="cls-1" d="M65.42 44.37c-3.22-5-8.93-7.78-14.8-6.06S39.3 44.92 38.39 51.07c-1 6.54 3.61 11.87 9.88 13.08 6 1.17 12.39.24 16.58-4.59A16.51 16.51 0 0068.66 51c.47-3.41-.63-7.61-4.56-8.17a1.17 1.17 0 00-1.2 1.53A2.41 2.41 0 0065 46c-.54-.08-.16-.16-.1.1s.23.48.3.69a5.67 5.67 0 01.2 1.64 12.52 12.52 0 01-.63 3.63 14.42 14.42 0 01-3.1 5.41c-3.18 3.5-7.85 4.39-12.39 3.78-2.06-.28-4.26-.82-5.73-2.41a7.68 7.68 0 01-1.85-6.1c.51-4.88 4.45-8.58 8.66-10.62 4.4-2.15 9.37-1.34 12.12 2.91a2.3 2.3 0 002.32 1.2 1.23 1.23 0 00.63-1.9z"/></g></g></svg>