<svg xmlns="http://www.w3.org/2000/svg" viewBox="0 0 71.67 66.76"><defs><style>.cls-1{fill:#1d1d1b}</style></defs><g id="Слой_2" data-name="Слой 2"><g id="Слой_1-2" data-name="Слой 1"><path class="cls-1" d="M2.55 15.85l58 .49c1 0 2.46-.66 2.45-1.86s-1.56-1.71-2.55-1.72l-58-.48c-1 0-2.46.66-2.45 1.85s1.56 1.71 2.55 1.72z"/><path class="cls-1" d="M.83 16.43a135.24 135.24 0 003.24 35.26c.26 1.15 5-.27 4.72-1.66a133 133 0 01-3.25-34.74c0-1.43-4.66-.15-4.71 1.14zm57.9-.04A74.4 74.4 0 0157 37.53c-.22 1 4.68 1.35 5-.18a74.41 74.41 0 001.71-21.14c-.12-1.39-5.11-1.13-5 .18zM8.44 58.37a149.64 149.64 0 0127.62-2.55c3.22 0 3.22-5 0-5a156.23 156.23 0 00-28.95 2.73 2.53 2.53 0 00-1.75 3.08 2.56 2.56 0 003.08 1.74zM18 25.23c-.06-.11-.1-.23-.17-.34-.15-.27 0 .08.07.21 0-.11-.07-.22-.1-.33-.09-.43-.18-.86-.24-1.3 0-.25-.06-.5-.08-.74v-2.54a22.31 22.31 0 012.05-8.7 12.72 12.72 0 016.59-6.59c3.83-1.57 9-1.21 13 .57a17.57 17.57 0 017.23 6.33 22.07 22.07 0 012.24 4.38c.2.51 1.41 3.91 1.06 4.15l.94-.38h-.23a1.48 1.48 0 00-1.2 2.2 3.2 3.2 0 003.1 1.69c4-.61 1.17-7 .22-9.23A25.72 25.72 0 0046 5.78 24.13 24.13 0 0027.46.17a15.38 15.38 0 00-10.85 6.44A22.35 22.35 0 0013 17c-.31 2.64-.63 6.37.78 8.79a3.25 3.25 0 003.1 1.69 1.47 1.47 0 001.2-2.2z"/><path class="cls-1" d="M67.65 42.54c-3.86-6-10.79-9.23-17.8-7S36.37 43.58 35.38 51a13.42 13.42 0 002.71 10.1 14.83 14.83 0 009.37 5.19c7.11 1.27 14.49.14 19.44-5.52a19.89 19.89 0 004.66-10.43c.5-3.75-.63-8.82-5.1-9.36a1.17 1.17 0 00-1.2 1.53 2.39 2.39 0 002.09 1.64c.62.07.91 2.29.93 2.77a13.44 13.44 0 01-.53 4.37 17.73 17.73 0 01-3.68 7c-3.84 4.48-9.49 5.81-15.18 5.15-2.69-.31-5.58-.94-7.57-2.9a9.57 9.57 0 01-2.66-7.36c.3-6.22 5.22-11 10.51-13.65a12.91 12.91 0 018.88-1.31 11.36 11.36 0 016.65 5 2.3 2.3 0 002.3 1.22 1.23 1.23 0 00.63-1.9z"/><text transform="translate(45.91 56.78)" font-size="16.17" stroke="#1d1d1b" stroke-miterlimit="10" font-family="Alcotton2Bold,&quot;Alcotton 2&quot;" letter-spacing=".14em" fill="#1d1d1b">2</text></g></g></svg>