<svg xmlns="http://www.w3.org/2000/svg" viewBox="0 0 68.11 55.16"><defs><style>.cls-1{fill:#1d1d1b}</style></defs><g id="Слой_2" data-name="Слой 2"><g id="Слой_1-2" data-name="Слой 1"><path class="cls-1" d="M63.49.52A620.74 620.74 0 0013.69 41Q6.91 47.08.31 53.4c-1.55 1.48 3.2 2.34 4.27 1.31a620.86 620.86 0 0148.59-41.9q7.21-5.6 14.6-11c.91-.66-.18-1.39-.84-1.6a4.22 4.22 0 00-3.44.29z"/><path class="cls-1" d="M4.91 10.58C18.31 21.76 35 27.47 50.16 35.69a100.52 100.52 0 0112.5 7.86 4.26 4.26 0 003.1.45c.22 0 2.42-.61 1.69-1.15-14-10.45-30.65-16-45.63-24.63A86.65 86.65 0 019.7 9.87a4.11 4.11 0 00-3.1-.44c-.25 0-2.39.57-1.69 1.15z"/></g></g></svg>