<svg xmlns="http://www.w3.org/2000/svg" viewBox="0 0 22.16 18.41"><defs><style>.cls-1{fill:#1d1d1b}</style></defs><g id="Слой_2" data-name="Слой 2"><g id="Слой_1-2" data-name="Слой 1"><path class="cls-1" d="M18.18.4A122.65 122.65 0 00.79 14.15a2.29 2.29 0 00-.22 3.24C1.29 18.25 3 18.87 4 18A122 122 0 0121.36 4.21 2.24 2.24 0 0021.58 1a2.6 2.6 0 00-3.4-.6z"/><path class="cls-1" d="M2.55 7l10.54 9.1a3 3 0 003.54.1 1.7 1.7 0 00.07-2.75L6.16 4.34a3 3 0 00-3.54-.1A1.7 1.7 0 002.55 7z"/></g></g></svg>