<svg width="81" height="76" fill="none" xmlns="http://www.w3.org/2000/svg"><g clip-path="url(#clip0)" fill="#000"><path d="M79.014 7.818C74.571-1.4 63.532.213 54.584.076c-14-.304-33.896.487-47.897.076-3.634-.152.55 10.632 4.199 10.738 10.23.304 26.369 0 36.645-.091 4.84 0 9.68 0 14.52.106 3.466.122 7.91-.213 11.696.548-.092 3.346-.886 7.407-.962 9.597-.153 4.7-.245 9.399-.351 14.099-.153 6.707 2.076 23.604-3.39 27.62-3.985 2.92-11.07 1.718-15.849 1.718-5.176 0-10.352-.137-15.528-.304-8.642-.274-18.322.365-27.04-.76 0-1.795-.29-3.605-.413-5.4-.351-4.912-.687-9.825-1.038-14.722-.692-9.278-1.36-18.55-2-27.818-.23-3.24-7.604-11.985-7.177-5.718L3.053 52.35c.489 6.783-.214 17.901 7.634 21.186 4.917 2.054 13.544.791 18.75.989 6.734.259 13.482.532 20.216.654 6.733.122 24.628 3.483 28.216-4.258 1.817-4.03 1.145-9.643 1.313-13.947.275-6.555.367-13.11.52-19.68.213-8.837 3.343-21.294-.611-29.476"/><path d="M63.197 27.833a3.344 3.344 0 001.532-1.02 3.325 3.325 0 00.758-1.672v-1.05a7.082 7.082 0 00-.443-1.947 12.408 12.408 0 00-1.695-3.467 11.394 11.394 0 00-1.786-1.947 2.552 2.552 0 00-2.428-.684l-1.695.684a.76.76 0 00-.198.183c-.21-.1-.439-.157-.672-.168-.405 0-.793.16-1.08.446a1.518 1.518 0 00-.447 1.075 7.578 7.578 0 00.642 3.68 11.887 11.887 0 002.442 3.91c1.436 1.43 3.054 2.554 5.07 2.037M39.362 49.004c-6.382 1.52-15.451-1.37-15.497-8.974a15.662 15.662 0 013.82-9.77 15.772 15.772 0 019.143-5.196c6.733-1.216 14.337 1.902 14.795 9.202a15.843 15.843 0 01-3.632 9.404 15.95 15.95 0 01-8.583 5.334h-.046zm5.436-31.21a18.476 18.476 0 00-11.744-2.004c-4.03.647-7.73 2.61-10.518 5.579-12.215 13.125.29 38.357 18.063 37.277a18.52 18.52 0 0012.175-5.727 18.38 18.38 0 005.048-12.432 1.834 1.834 0 000-.29v-.623a26.19 26.19 0 00-3.7-12.558 26.319 26.319 0 00-9.324-9.221z"/></g><defs><clipPath id="clip0"><path fill="#fff" d="M0 0h81v76H0z"/></clipPath></defs></svg>