<svg width="30" height="25" viewBox="0 0 43 35" fill="none" xmlns="http://www.w3.org/2000/svg"><g clip-path="url(#clip0)" fill="#fff"><path d="M34.13.43A327.824 327.824 0 00.1 32c-.78.84 3.27 3.59 4.39 2.4A323.146 323.146 0 0138.11 3.21c1.22-1-2.89-3.66-4-2.78h.02z"/><path d="M6.33 3.24c8.4 12.17 20.39 20.9 32.3 29.36 2.46 1.76 5.47-1.83 2.83-3.7C30.29 21 18.72 12.75 10.82 1.31A2.71 2.71 0 007.48.22c-1.05.45-1.9 1.94-1.15 3v.02z"/></g><defs><clipPath id="clip0"><path fill="#fff" d="M0 0h42.49v34.69H0z"/></clipPath></defs></svg>