<svg width="49" height="22" fill="none" xmlns="http://www.w3.org/2000/svg"><g clip-path="url(#clip0)" fill="#fff"><path d="M3.05 9.81l21.31 1.36 10.41.67c1.81.11 3.63.29 5.45.34a3.43 3.43 0 003.41-1.64c.6-1-.9-2.23-1.72-2.54a2.3 2.3 0 00-3 .79c.43-.76.79-.23.12-.36a10.552 10.552 0 00-1.13-.07l-2.44-.16-4.71-.3-9.66-.61L1.76 6.05A1.57 1.57 0 00.07 8c.38 1.25 1.83 1.72 3 1.8l-.02.01z"/><path d="M27.59 3.16L46 11.3l-1.44-3.13A519.421 519.421 0 0015.1 18.54c-2.26.87 1.48 3.95 3.06 3.34a505.679 505.679 0 0129.46-10.37c2.05-.65-.6-2.75-1.46-3.13L27.74.25C27-.07 25.55-.26 25.4.81c-.15 1.07 1.41 2 2.19 2.35z"/></g><defs><clipPath id="clip0"><path fill="#fff" d="M0 0h48.38v21.96H0z"/></clipPath></defs></svg>