<svg width="117" height="68" fill="none" xmlns="http://www.w3.org/2000/svg"><path d="M64.73 42.553c-.878-.848-3.552-2.781-3.792-.222-.368 3.838 1.414 13.655-2.136 14.615-3.226.862-10.483-1.85-13.383-2.781a56.73 56.73 0 01-20.711-12.836C17.054 34.015 9.628 23.377 8.41 12.627a4.113 4.113 0 00-.142-.612c5.843 0 11.7-.083 17.556-.264 4.244 6.508 8.828 13.128 14.416 18.51.792.764 3.72 2.878 3.806.222.155-4.965-1.797-17.119 3.366-18.87 4.117-1.391 9.903-1.391 14.925-.946.17 4.964.283 9.915 0 14.865-.099 1.96 2.66 10.096 5.9 8.344C75.976 29.8 82.385 20.47 87.293 13.517c.227-.333 1.146-1.39 1.415-1.85.806.098 3.112 0 3.692 0a956.1 956.1 0 0113.652-.124c-1.598 2.336-3.48 4.52-5.008 6.383-3.621 4.436-7.597 9.136-12.435 12.32-2.518 1.67.891 6.745 2.094 8.163l14.147 16.604a48.74 48.74 0 01-21.49-1.666 48.129 48.129 0 01-18.574-10.752l-.057-.042zm31.985-4.978A78.474 78.474 0 00107.1 26.547c3.678-4.491 8.686-10.318 8.898-16.381.085-2.475-1.924-8.483-5.234-8.497-7.441 0-14.868 0-22.31.14-2.73 0-4.145-.279-6.069 1.307-2.999 2.489-5.319 7.106-7.823 10.11-1.726 2.1-3.522 4.352-5.503 6.396-.085-3.588-.226-7.175-.34-10.763-.07-2.475-2.362-7.217-5.248-7.537-8.064-.89-15.986.306-24.05.709-.375 0-.735.146-1 .407s-.414.615-.414.984c-.17 5.34-.34 10.665-.495 16.005-3.834-5.13-6.805-10.888-11.162-15.477-2.377-2.49-3.99-2.03-7.343-1.947-5.56.14-11.119.264-16.693.18-1.74-.027-1.57 2.504-.537 5.007-.007.07-.007.14 0 .209C5.312 38.354 34.95 65.15 66.073 67a1.43 1.43 0 001-.407c.266-.261.415-.615.415-.984.424-4.408 0-8.802 0-13.196A53.837 53.837 0 0089.45 63.57a54.403 54.403 0 0024.721.26c2.83-.64-1.414-7.357-2.093-8.163a7081.304 7081.304 0 00-15.392-18.078" fill="#000"/></svg>