<svg xmlns="http://www.w3.org/2000/svg" viewBox="0 0 88.2 41.92"><g id="Слой_2" data-name="Слой 2"><path d="M2.48 4.76l65-.14h18.48c3.23 0 2.92-4.59-.19-4.58l-65 .11L2.28.19c-3.23 0-2.91 4.58.2 4.57zM17.2 26.41a534.24 534.24 0 0162.8-.77l-1.32-4.3a45.37 45.37 0 00-9.59.9c-2.78.56-.36 4.75 1.86 4.3a45.37 45.37 0 019.59-.9c1.1 0 1.39-1.31 1.14-2.12a3.12 3.12 0 00-2.47-2.17q-24.86-1.16-49.75-.06-7 .32-14.08.82c-1.21.08-1.45 1.47-1.05 2.4a3.1 3.1 0 002.91 1.9zm11.3 15.48a147.13 147.13 0 0125.75-1.81A2.75 2.75 0 0057.06 38a2 2 0 00-2-2.32 153.74 153.74 0 00-27 1.89 2.58 2.58 0 00-2.19 2.63 2.19 2.19 0 002.67 1.71z" fill="#1d1d1b" id="Слой_1-2" data-name="Слой 1"/></g></svg>