<svg width="105" height="76" fill="none" xmlns="http://www.w3.org/2000/svg"><g clip-path="url(#clip0)" fill="#000"><path d="M99.825 64.314c-19.634-.085-39.268.879-58.902 1.106-6.073 0-12.257.355-18.316 0-9.985-.553-9.985-9.232-11.009-17.302C9.958 34.546 8.232 21.003 6.62 7.445 6.367 5.318 5.09 1.489 2.973.525 1.403-.214-.28-.54 0 2.112 2.09 19.329 3.73 36.716 6.381 53.89c1.57 10.098 6.9 20.124 17.881 21.429 12.734 1.517 26.422.1 39.268-.326 13.393-.44 26.773-.71 40.18-.653 3.436 0-.533-10.012-3.857-10.026"/><path d="M11.065 10.891c19.27-.156 38.665-2.042 57.907-.468 5.062.411 10.111 1.021 15.132 1.759 3.281.468 6.591 1.276 9.817 1.574.935-2.666 1.262-2.822.981-.468 0 1.418 0 2.836-.084 4.254a295.318 295.318 0 01-3.52 37.213c-.49 3.035 5.848 11.572 6.536 7.304 2.258-14.04 4.123-28.973 3.674-43.24-.393-12.764-9.256-14.806-19.999-16.409C56.73-1.419 32.256.666 7.223.88c-3.464.028.532 10.04 3.842 10.012z"/><path d="M38.931 54.897l2.244-.837c.346.302.74.542 1.164.71 1.697.567 2.118-.624 2.09-1.943l31.499-11.87c3.113-1.178-1.936-9.034-3.745-9.672l-33-11.729c-4.206-1.418-.574 8.51 2.343 9.559l17.881 6.34-17.152 6.48c-.63-3.006-1.262-6.027-1.907-9.034-.435-2.084-2.076-5.559-4.207-6.282-2.132-.723-2.272 1.63-1.922 3.276.982 4.666 1.95 9.317 2.931 13.983l-3.31 1.248c-2.804 1.064 1.796 11.033 5.133 9.771"/></g><defs><clipPath id="clip0"><path fill="#fff" d="M0 0h105v76H0z"/></clipPath></defs></svg>