<svg xmlns="http://www.w3.org/2000/svg" viewBox="0 0 18.37 18.09"><defs><style>.cls-1{fill:#1d1d1b;}</style></defs><title>Маленькая стрелочка вправо</title><g id="Слой_2" data-name="Слой 2"><g id="Слой_1-2" data-name="Слой 1"><path class="cls-1" d="M.46,3.47C2.74,4.22,5,5,7.26,5.91c1.12.44,2.24.89,3.35,1.36a21.81,21.81,0,0,1,2.92,1.3c.09,0,.53.47.48.47s.26-.38.25-.37l-.06.06c.15-.12.13-.11-.07,0-1,.68-2,1.42-3,2.13l-6,4.25c-.64.45-1.89,1.66-1.27,2.54s2.22.1,2.82-.33l6.68-4.75A30.3,30.3,0,0,0,16.85,10c1-.91,2-2.42,1.29-3.77-.52-1-1.76-1.4-2.72-1.81-1.24-.54-2.48-1.05-3.73-1.55Q7.88,1.38,4,.11a3.15,3.15,0,0,0-3,1c-.38.38-1.58,2-.47,2.36Z"/></g></g></svg>