<svg xmlns="http://www.w3.org/2000/svg" viewBox="0 0 50.86 18.61"><defs><style>.cls-1{fill:#1d1d1b;}</style></defs><title>Большая стрелочка влево</title><g id="Слой_2" data-name="Слой 2"><g id="Слой_1-2" data-name="Слой 1"><path class="cls-1" d="M49.3,10.6C42,11,34.68,10.08,27.39,9.4c-3.63-.33-7.27-.59-10.92-.6-1.55,0-3.09.11-4.64.13a8.18,8.18,0,0,1-1.18-.06,3.51,3.51,0,0,0-.78-.12c-.17,0-.24-.36.08.16C9,7.3,4.4,9.24,5.26,10.62c1.15,1.84,4.87,1.26,6.7,1.19a94.38,94.38,0,0,1,11.77.43c8,.71,15.94,1.8,24,1.32,1-.06,2.59-.57,3.05-1.6s-.59-1.41-1.44-1.36Z"/><path class="cls-1" d="M24.1.09C16.5,3.41,8.22,4.91.61,8.22c-1.88.83,1.1,2.5,1.89,2.75,7.22,2.29,14.15,4.53,21.13,7.23.68.26,2.33.83,2.77-.11S25.16,16.22,24.58,16C17.21,13.14,9.74,10.7,2.2,8.31l1.89,2.74C11.7,7.74,20,6.24,27.58,2.92,29.62,2,25.51-.52,24.1.09Z"/></g></g></svg>