<svg xmlns="http://www.w3.org/2000/svg" viewBox="0 0 26.21 19.6"><defs><style>.cls-1{fill:#1d1d1b;}</style></defs><title>Стрелочка вправо</title><g id="Слой_2" data-name="Слой 2"><g id="Слой_1-2" data-name="Слой 1"><path class="cls-1" d="M1.4,9.24a72,72,0,0,1,19.66,1.24,4.71,4.71,0,0,0,3.42-.9c.81-.61.58-1.19-.36-1.38A76.61,76.61,0,0,0,3.4,6.91C2.37,7,.85,7.22.18,8.13S.72,9.29,1.4,9.24Z"/><path class="cls-1" d="M14.66,4A26.35,26.35,0,0,1,18.8,7.12Q19.76,8,20.66,9c.14.15.64.71.58.75a.28.28,0,0,1,0-.13.66.66,0,0,1,.19-.5l-.13.17c.13-.14.13-.15,0-.05-3.4,2.32-7,4.38-10.5,6.56a2,2,0,0,0-.2,3.06,2.83,2.83,0,0,0,3.53.23l6.18-3.85,3.08-1.92A5.59,5.59,0,0,0,26,10.81C27,8.32,24.42,6.1,22.81,4.57A34.75,34.75,0,0,0,17.42.38,2.75,2.75,0,0,0,14,.94a2.07,2.07,0,0,0,.71,3Z"/></g></g></svg>