<svg xmlns="http://www.w3.org/2000/svg" viewBox="0 0 31.59 17.83"><defs><style>.cls-1{fill:#1d1d1b;}</style></defs><title>Стрелочка влево</title><g id="Слой_2" data-name="Слой 2"><g id="Слой_1-2" data-name="Слой 1"><path class="cls-1" d="M7.22,9.76A171.3,171.3,0,0,1,29,10.24c.72.06,2.46.16,2.63-.86s-1.7-1.47-2.32-1.52a181,181,0,0,0-23-.57c-.69,0-2.22.2-1.93,1.24S6.45,9.8,7.22,9.76Z"/><path class="cls-1" d="M12.89.56A51.49,51.49,0,0,0,6,4.35C4,5.7,1.47,7.14.35,9.42a2.69,2.69,0,0,0,.18,2.94c.77.93,2.14,1.3,3.2,1.76l7.88,3.43a4,4,0,0,0,3.44-.26c.6-.33,1.61-1.43.51-1.91l-6.93-3A25.69,25.69,0,0,1,5.46,11a1.15,1.15,0,0,1-.32-1.7,6.38,6.38,0,0,1,2-1.92c.84-.62,1.69-1.21,2.56-1.77a49,49,0,0,1,6.18-3.34c.75-.34,1.44-1.36.51-1.92S13.88.12,12.89.56Z"/></g></g></svg>