<svg xmlns="http://www.w3.org/2000/svg" viewBox="0 0 71.67 66.76"><defs><style>.cls-1,.cls-2{fill:#1d1d1b;}.cls-2{font-size:16.17px;stroke:#1d1d1b;stroke-miterlimit:10;font-family:Alcotton2Bold, "Alcotton 2";letter-spacing:0.14em;}</style></defs><title>Корзина_3</title><g id="Слой_2" data-name="Слой 2"><g id="Слой_1-2" data-name="Слой 1"><path class="cls-1" d="M2.55,15.85l58,.49c1,0,2.46-.66,2.45-1.86s-1.56-1.71-2.55-1.72l-58-.48c-1,0-2.46.66-2.45,1.85s1.56,1.71,2.55,1.72Z"/><path class="cls-1" d="M.83,16.43A135.24,135.24,0,0,0,4.07,51.69c.26,1.15,5-.27,4.72-1.66A133,133,0,0,1,5.54,15.29c0-1.43-4.66-.15-4.71,1.14Z"/><path class="cls-1" d="M58.73,16.39A74.4,74.4,0,0,1,57,37.53c-.22,1,4.68,1.35,5-.18a74.41,74.41,0,0,0,1.71-21.14c-.12-1.39-5.11-1.13-5,.18Z"/><path class="cls-1" d="M8.44,58.37a149.64,149.64,0,0,1,27.62-2.55c3.22,0,3.22-5,0-5A156.23,156.23,0,0,0,7.11,53.55a2.53,2.53,0,0,0-1.75,3.08,2.56,2.56,0,0,0,3.08,1.74Z"/><path class="cls-1" d="M18,25.23c-.06-.11-.1-.23-.17-.34-.15-.27,0,.08.07.21,0-.11-.07-.22-.1-.33-.09-.43-.18-.86-.24-1.3,0-.25-.06-.5-.08-.74l0-.4c0-.1,0-.19,0-.28,0-.27,0,.34,0,.07,0-.65,0-1.29,0-1.93a22.31,22.31,0,0,1,2.05-8.7A12.72,12.72,0,0,1,26.12,4.9c3.83-1.57,9-1.21,13,.57a17.57,17.57,0,0,1,7.23,6.33,22.07,22.07,0,0,1,2.24,4.38c.2.51,1.41,3.91,1.06,4.15l.94-.38-.23,0a1.48,1.48,0,0,0-1.2,2.2,3.2,3.2,0,0,0,3.1,1.69c4-.61,1.17-7,.22-9.23A25.72,25.72,0,0,0,46,5.78,24.13,24.13,0,0,0,27.46.17,15.38,15.38,0,0,0,16.61,6.61,22.35,22.35,0,0,0,13,17c-.31,2.64-.63,6.37.78,8.79a3.25,3.25,0,0,0,3.1,1.69,1.47,1.47,0,0,0,1.2-2.2Z"/><path class="cls-1" d="M67.65,42.54c-3.86-6-10.79-9.23-17.8-7S36.37,43.58,35.38,51A13.42,13.42,0,0,0,38.09,61.1a14.83,14.83,0,0,0,9.37,5.19c7.11,1.27,14.49.14,19.44-5.52a19.89,19.89,0,0,0,4.66-10.43c.5-3.75-.63-8.82-5.1-9.36a1.17,1.17,0,0,0-1.2,1.53,2.39,2.39,0,0,0,2.09,1.64c.62.07.91,2.29.93,2.77a13.44,13.44,0,0,1-.53,4.37,17.73,17.73,0,0,1-3.68,7c-3.84,4.48-9.49,5.81-15.18,5.15-2.69-.31-5.58-.94-7.57-2.9a9.57,9.57,0,0,1-2.66-7.36c.3-6.22,5.22-11,10.51-13.65a12.91,12.91,0,0,1,8.88-1.31,11.36,11.36,0,0,1,6.65,5A2.3,2.3,0,0,0,67,44.44a1.23,1.23,0,0,0,.63-1.9Z"/><text class="cls-2" transform="translate(45.91 56.78)">2</text></g></g></svg>