<svg xmlns="http://www.w3.org/2000/svg" viewBox="0 0 78.61 69.62"><defs><style>.cls-1,.cls-2{fill:#1d1d1b;}.cls-2{font-size:12px;stroke:#1d1d1b;stroke-miterlimit:10;stroke-width:2px;font-family:Alcotton2Bold, "Alcotton 2";letter-spacing:0.14em;}</style></defs><title>Корзина_2_1</title><g id="Слой_2" data-name="Слой 2"><g id="Слой_1-2" data-name="Слой 1"><path class="cls-1" d="M11.34,25.19l53,.44c3.14,0,3.61-4.84.38-4.87l-53-.44c-3.14,0-3.61,4.84-.38,4.87Z"/><path class="cls-1" d="M9.79,25c-.38,11.07,3.29,21.68,5.75,32.32.36,1.54,5.05-.08,4.65-1.86C17.77,45,14.14,34.63,14.51,23.8c.07-1.87-4.66-.46-4.72,1.18Z"/><path class="cls-1" d="M62.75,25C61,31.59,59.58,38.21,58.44,44.91c-.4,2.36,4.52,1.67,4.88-.46,1.14-6.7,2.54-13.32,4.32-19.88C68,23.4,66.19,23,65.4,23.06a2.87,2.87,0,0,0-2.65,2Z"/><path class="cls-1" d="M20.33,62.55A129.83,129.83,0,0,1,48.1,60.72c3.22.11,3.22-4.89,0-5a136.44,136.44,0,0,0-29.1,2,2.5,2.5,0,0,0,1.33,4.82Z"/><path class="cls-1" d="M75.36,48.81A12.06,12.06,0,0,0,60.8,44c-5.61,2-11.1,6.7-12.36,12.74A10.63,10.63,0,0,0,50,65.06a11.09,11.09,0,0,0,7.33,4.18c6.06,1.11,12.4-.15,16.69-4.83a17.67,17.67,0,0,0,4.29-8.33c.53-2.58.58-7.33-2.91-7.83a2.67,2.67,0,0,0-2.31,1.17c-.36.53-.57,1.48.32,1.6,2.38.34,2,4.44,1.63,6A13.54,13.54,0,0,1,72.29,63c-3,3.71-7.82,4.32-12.33,3.61a10.25,10.25,0,0,1-6.21-2.86,8.7,8.7,0,0,1-2.26-6.26c.23-4.86,3.87-8.64,8.14-10.55,4.85-2.18,9.87-.27,12.68,4.09.79,1.23,3.87-.91,3-2.18Z"/><text class="cls-2" transform="translate(57.04 60.77)">2</text><path class="cls-1" d="M3.67,12.18l-1.95,4.4-1,2.2A5.79,5.79,0,0,0,0,21.15a3.35,3.35,0,0,0,2.89,2.94,12.64,12.64,0,0,0,2.68.09l4.75,0c1.06,0,2.19-.84,1.84-2a3,3,0,0,0-2.88-2l-4,0H2.83q-.37,0,.27,0l.41.13c.83,1.8,1.26,2.32,1.31,1.56,0-.14,0-.09,0,.15L5,21.65c1.08-2.5,2.19-5,3.3-7.5.5-1.11-.57-2.33-1.55-2.71s-2.52-.43-3,.74Z"/><path class="cls-1" d="M7.15,14Q32.68,16.7,58.38,16.9q7.31,0,14.62-.11l-1.58-1.31a28.43,28.43,0,0,1-1.83,7.37l2.52-1.46a35.12,35.12,0,0,1-6.32-.07,3.4,3.4,0,0,0-3.13,1.48c-.5,1.07.5,1.64,1.44,1.73a43.27,43.27,0,0,0,7.55,0,3.24,3.24,0,0,0,2.51-1.46,31.44,31.44,0,0,0,2.12-8.2c.08-.84-.84-1.33-1.58-1.31Q49,14.11,23.41,12.15q-7.29-.57-14.57-1.33A3.36,3.36,0,0,0,5.71,12.3c-.51,1.08.5,1.63,1.44,1.73Z"/><path class="cls-1" d="M14,12.37c4.37-4.07,9.59-7,14.72-10,.9-.52.21-1.27-.48-1.64s-2.5-1-3.41-.52C19.53,3.32,14.06,6.34,9.52,10.57c-.75.7.87,1.55,1.34,1.73.8.3,2.41.77,3.17.07Z"/><path class="cls-1" d="M49.89,4.4a71.76,71.76,0,0,0,14.9,9.41,2.67,2.67,0,0,0,3.3-1.25,2.18,2.18,0,0,0-1.13-3,60.52,60.52,0,0,1-7-3.89A70.15,70.15,0,0,1,53.11.73C50.88-1.1,47.48,2.42,49.89,4.4Z"/><path class="cls-1" d="M13.78,40.44q20.73-.84,41.47-.58a3.49,3.49,0,0,0,2.91-2c.45-1.05-.16-1.79-1.24-1.81q-20.74-.26-41.47.58a3.52,3.52,0,0,0-2.91,2,1.22,1.22,0,0,0,1.24,1.81Z"/><path class="cls-1" d="M19.28,24.12c.08,5.54,2.34,10.6,4.44,15.62a41.44,41.44,0,0,1,3.7,16.5c0,2.63,4.84,1.57,4.85-.79a42.82,42.82,0,0,0-3.54-16.69c-2.05-5-4.51-9.95-4.59-15.43,0-2.64-4.89-1.57-4.86.79Z"/><path class="cls-1" d="M52.53,25.1c.31,8.12-3,15.83-3,23.93a2.82,2.82,0,0,0,2.2,2.77,2,2,0,0,0,2.38-1.89c.06-8.09,3.34-15.8,3-23.93a2.85,2.85,0,0,0-2.2-2.77,2,2,0,0,0-2.38,1.89Z"/><path class="cls-1" d="M39.35,24.06c0,6.28-.13,12.59,0,18.87.12,5,1,10.5-1.15,15.23-.92,2,4,2.51,4.84.71C45.31,54,44.54,48.4,44.38,43.21c-.2-6.41,0-12.84,0-19.25,0-2.06-5-2-5,.1Z"/></g></g></svg>