<svg xmlns="http://www.w3.org/2000/svg" viewBox="0 0 22.16 18.41"><defs><style>.cls-1{fill:#1d1d1b;}</style></defs><title>Маленький крест</title><g id="Слой_2" data-name="Слой 2"><g id="Слой_1-2" data-name="Слой 1"><path class="cls-1" d="M18.18.4A122.65,122.65,0,0,0,.79,14.15a2.29,2.29,0,0,0-.22,3.24C1.29,18.25,3,18.87,4,18A122,122,0,0,1,21.36,4.21,2.24,2.24,0,0,0,21.58,1,2.6,2.6,0,0,0,18.18.4Z"/><path class="cls-1" d="M2.55,7,13.09,16.1a3,3,0,0,0,3.54.1,1.7,1.7,0,0,0,.07-2.75L6.16,4.34a3,3,0,0,0-3.54-.1A1.7,1.7,0,0,0,2.55,7Z"/></g></g></svg>