<svg width="81" height="76" viewBox="0 0 81 76" fill="none" xmlns="http://www.w3.org/2000/svg">
<g clip-path="url(#clip0)">
<path d="M79.0144 7.81781C74.5713 -1.39892 63.532 0.213243 54.5846 0.0763609C40.5833 -0.227822 20.6883 0.563053 6.68699 0.152406C3.05306 0.000315215 7.23666 10.7836 10.8859 10.89C21.1158 11.1942 37.2548 10.89 47.5305 10.7988C52.3707 10.7988 57.2108 10.7988 62.051 10.9053C65.517 11.0269 69.9601 10.6923 73.7467 11.4528C73.6551 14.7988 72.8612 18.8596 72.7848 21.0497C72.6321 25.7494 72.5405 30.449 72.4336 35.1486C72.281 41.8558 74.5102 58.7532 69.044 62.7684C65.0589 65.6885 57.9743 64.487 53.1952 64.487C48.0191 64.487 42.8431 64.3501 37.667 64.1828C29.025 63.9091 19.3447 64.5479 10.6263 63.4224C10.6263 61.6277 10.3362 59.8178 10.214 58.0231C9.86286 53.1106 9.52695 48.198 9.17577 43.3007C8.4836 34.0231 7.81687 24.7506 7.17558 15.4832C6.94655 12.2437 -0.428186 3.49841 -0.000665143 9.76458C1.01724 23.9598 2.03515 38.1549 3.05306 52.3501C3.54165 59.1334 2.8393 70.2513 10.6874 73.5364C15.6039 75.5897 24.2306 74.3273 29.4372 74.525C36.1707 74.7836 42.9194 75.0574 49.6529 75.179C56.3863 75.3007 74.2811 78.6619 77.8693 70.9205C79.6862 66.8901 79.0144 61.2779 79.1824 56.9737C79.4572 50.4186 79.5488 43.8634 79.7015 37.2931C79.9153 28.4566 83.0453 16.0003 79.0908 7.81781" fill="black"/>
<path d="M63.1967 27.8326C63.7932 27.6426 64.3242 27.2895 64.7291 26.8135C65.134 26.3376 65.3966 25.7579 65.487 25.1406C65.487 24.7908 65.487 24.441 65.487 24.0912C65.4321 23.4247 65.283 22.7693 65.0442 22.1444C64.6639 20.9077 64.092 19.7377 63.3494 18.6767C62.8317 17.961 62.2322 17.3077 61.5629 16.7299C61.2526 16.4159 60.8656 16.1877 60.44 16.0677C60.0144 15.9477 59.5647 15.94 59.1352 16.0455L57.4404 16.7299C57.3639 16.7785 57.2966 16.8403 57.2419 16.9125C57.0315 16.8124 56.803 16.7555 56.5701 16.7452C56.1651 16.7452 55.7768 16.9054 55.4904 17.1906C55.2041 17.4758 55.0432 17.8627 55.0432 18.2661C54.9464 19.527 55.1668 20.792 55.6845 21.9467C56.2355 23.3957 57.0653 24.7234 58.1275 25.8554C59.5627 27.2851 61.1812 28.4105 63.1967 27.8934" fill="black"/>
<path d="M39.3624 49.0036C32.9802 50.5245 23.9106 47.6348 23.8648 40.0302C23.9759 36.4334 25.3243 32.9839 27.6842 30.2594C30.0442 27.5349 33.2723 25.7008 36.8278 25.0644C43.5613 23.8477 51.1651 26.9656 51.6231 34.266C51.4695 37.7104 50.1945 41.0115 47.9909 43.6703C45.7872 46.3291 42.7745 48.2012 39.4082 49.0036H39.3624ZM44.7981 17.7945C41.2145 15.8484 37.0833 15.1434 33.0538 15.7904C29.0242 16.4373 25.3247 18.3995 22.5364 21.3686C10.3215 34.4941 22.8265 59.726 40.5992 58.6462C45.2357 58.3292 49.5824 56.2847 52.774 52.9195C55.9655 49.5544 57.7679 45.1155 57.8222 40.4865C57.8298 40.3903 57.8298 40.2937 57.8222 40.1975C57.8222 39.9998 57.8222 39.8021 57.8222 39.5739C57.6725 35.1439 56.3998 30.8236 54.1225 27.0155C51.8452 23.2073 48.6375 20.0352 44.7981 17.7945Z" fill="black"/>
</g>
<defs>
<clipPath id="clip0">
<rect width="81" height="76" fill="white"/>
</clipPath>
</defs>
</svg>
