<svg width="27" height="25" viewBox="0 0 27 25" fill="none" xmlns="http://www.w3.org/2000/svg">
<g clip-path="url(#clip0)">
<path d="M26.3393 2.57102C24.8582 -0.460802 21.1785 0.0695161 18.196 0.0244891C13.5289 -0.075571 6.89722 0.184585 2.23011 0.0495041C1.0188 -0.000525937 2.41334 3.5466 3.62974 3.58162C7.03973 3.68168 12.4194 3.58162 15.8446 3.55161C17.458 3.55161 19.0714 3.55161 20.6848 3.58663C21.8401 3.62665 23.3212 3.51659 24.5834 3.76674C24.5528 4.8674 24.2882 6.2032 24.2627 6.92363C24.2118 8.46956 24.1813 10.0155 24.1457 11.5614C24.0948 13.7677 24.8378 19.3261 23.0158 20.6469C21.6874 21.6074 19.3259 21.2122 17.7328 21.2122C16.0075 21.2122 14.2821 21.1672 12.5568 21.1121C9.67611 21.0221 6.44934 21.2322 3.54321 20.862C3.54321 20.2716 3.44651 19.6763 3.4058 19.0859C3.28874 17.47 3.17677 15.854 3.05971 14.243C2.82898 11.1912 2.60674 8.14103 2.39298 5.09253C2.31664 4.02689 -0.14161 1.15016 0.000897262 3.2114C0.3402 7.88087 0.679502 12.5503 1.0188 17.2198C1.18167 19.4511 0.947551 23.1083 3.56357 24.189C5.2024 24.8644 8.07799 24.4492 9.81353 24.5142C12.058 24.5992 14.3076 24.6893 16.5521 24.7293C18.7966 24.7693 24.7615 25.875 25.9575 23.3285C26.5632 22.0027 26.3393 20.1566 26.3952 18.7407C26.4868 16.5844 26.5174 14.4281 26.5683 12.2668C26.6395 9.36009 27.6829 5.26263 26.3647 2.57102" fill="white"/>
<path d="M21.0656 9.15552C21.2645 9.09301 21.4415 8.97686 21.5764 8.8203C21.7114 8.66374 21.7989 8.47307 21.829 8.26999C21.829 8.15492 21.829 8.03986 21.829 7.92479C21.8108 7.70556 21.7611 7.48997 21.6814 7.2844C21.5547 6.87759 21.3641 6.49273 21.1165 6.14372C20.9439 5.90828 20.7441 5.69338 20.521 5.50333C20.4176 5.40003 20.2886 5.32495 20.1467 5.28548C20.0048 5.24601 19.855 5.2435 19.7118 5.2782L19.1469 5.50333C19.1213 5.51932 19.0989 5.53965 19.0807 5.56337C19.0106 5.53047 18.9344 5.51175 18.8568 5.50834C18.7218 5.50834 18.5923 5.56105 18.4969 5.65487C18.4014 5.7487 18.3478 5.87595 18.3478 6.00864C18.3155 6.42341 18.389 6.83954 18.5616 7.21936C18.7452 7.696 19.0218 8.13278 19.3759 8.50513C19.8543 8.97542 20.3938 9.34564 21.0656 9.17554" fill="white"/>
<path d="M13.1209 16.1195C10.9934 16.6198 7.97024 15.6692 7.95497 13.1677C7.992 11.9846 8.44147 10.8498 9.22812 9.95362C10.0148 9.0574 11.0908 8.45409 12.276 8.24475C14.5205 7.84451 17.0551 8.87013 17.2078 11.2716C17.1565 12.4046 16.7316 13.4905 15.997 14.3651C15.2624 15.2397 14.2582 15.8555 13.1361 16.1195H13.1209ZM14.9327 5.85332C13.7382 5.21315 12.3612 4.98126 11.018 5.19407C9.67479 5.40689 8.4416 6.05234 7.51218 7.02902C3.44055 11.3466 7.60888 19.6466 13.5331 19.2914C15.0786 19.1871 16.5275 18.5146 17.5914 17.4076C18.6552 16.3007 19.256 14.8405 19.2741 13.3178C19.2766 13.2862 19.2766 13.2544 19.2741 13.2227C19.2741 13.1577 19.2741 13.0927 19.2741 13.0176C19.2242 11.5604 18.8 10.1392 18.0409 8.88654C17.2818 7.63386 16.2125 6.59039 14.9327 5.85332Z" fill="white"/>
</g>
<defs>
<clipPath id="clip0">
<rect width="27" height="25" fill="white"/>
</clipPath>
</defs>
</svg>
