<svg width="51" height="19" viewBox="0 0 51 19" fill="none" xmlns="http://www.w3.org/2000/svg">
<g clip-path="url(#clip0)">
<path d="M49.2999 10.6004C41.9999 11.0004 34.6799 10.0804 27.3899 9.40039C23.7599 9.07039 20.1199 8.81039 16.4699 8.80039C14.9199 8.80039 13.3799 8.91039 11.8299 8.93039C11.4356 8.93886 11.0412 8.9188 10.6499 8.87039C10.3952 8.80119 10.1336 8.76094 9.86987 8.75039C9.69987 8.75039 9.62987 8.39039 9.94987 8.91039C8.99987 7.30039 4.39987 9.24039 5.25987 10.6204C6.40987 12.4604 10.1299 11.8804 11.9599 11.8104C15.8883 11.7085 19.8193 11.8522 23.7299 12.2404C31.7299 12.9504 39.6699 14.0404 47.7299 13.5604C48.7299 13.5004 50.3199 12.9904 50.7799 11.9604C51.2399 10.9304 50.1899 10.5504 49.3399 10.6004H49.2999Z" fill="white"/>
<path d="M24.0998 0.0902013C16.4998 3.4102 8.21981 4.9102 0.609812 8.2202C-1.27019 9.0502 1.70981 10.7202 2.49981 10.9702C9.71981 13.2602 16.6498 15.5002 23.6298 18.2002C24.3098 18.4602 25.9598 19.0302 26.3998 18.0902C26.8398 17.1502 25.1598 16.2202 24.5798 16.0002C17.2098 13.1402 9.73981 10.7002 2.19981 8.3102L4.08981 11.0502C11.6998 7.7402 19.9998 6.2402 27.5798 2.9202C29.6198 2.0002 25.5098 -0.519799 24.0998 0.0902013Z" fill="white"/>
</g>
<defs>
<clipPath id="clip0">
<rect width="50.86" height="18.61" fill="white"/>
</clipPath>
</defs>
</svg>
