<svg width="49" height="22" viewBox="0 0 49 22" fill="none" xmlns="http://www.w3.org/2000/svg">
<g clip-path="url(#clip0)">
<path d="M3.05047 9.81014L24.3605 11.1701L34.7705 11.8401C36.5805 11.9501 38.4005 12.1301 40.2205 12.1801C40.8871 12.2713 41.5658 12.1645 42.1721 11.8729C42.7784 11.5813 43.2856 11.1178 43.6305 10.5401C44.2305 9.54014 42.7305 8.31014 41.9105 8.00014C41.402 7.7337 40.8123 7.66703 40.2572 7.8132C39.7021 7.95938 39.2217 8.30784 38.9105 8.79014C39.3405 8.03014 39.7005 8.56014 39.0305 8.43014C38.6553 8.3866 38.2781 8.36323 37.9005 8.36014L35.4605 8.20014L30.7505 7.90014L21.0905 7.29014L1.76047 6.05014C1.50832 6.02284 1.25332 6.05703 1.01727 6.14979C0.781219 6.24255 0.571156 6.39112 0.405053 6.58277C0.238949 6.77443 0.121749 7.00348 0.0634808 7.25031C0.0052126 7.49715 0.0076107 7.75443 0.0704699 8.00014C0.45047 9.25014 1.90047 9.72014 3.07047 9.80014L3.05047 9.81014Z" fill="white"/>
<path d="M27.5909 3.15987L46.0009 11.2999L44.5609 8.16987C34.6409 11.3299 24.8209 14.7865 15.1009 18.5399C12.8409 19.4099 16.5809 22.4899 18.1609 21.8799C27.8742 18.1199 37.6942 14.6632 47.6209 11.5099C49.6709 10.8599 47.0209 8.75987 46.1609 8.37987L27.7409 0.24987C27.0009 -0.0701298 25.5509 -0.26013 25.4009 0.80987C25.2509 1.87987 26.8109 2.80987 27.5909 3.15987Z" fill="white"/>
</g>
<defs>
<clipPath id="clip0">
<rect width="48.38" height="21.96" fill="white"/>
</clipPath>
</defs>
</svg>
