<svg width="30" height="25" viewBox="0 0 43 35" fill="none" xmlns="http://www.w3.org/2000/svg">
<g clip-path="url(#clip0)">
<path d="M34.13 0.429646C22.0549 10.1357 10.6831 20.6854 0.0999922 31.9996C-0.680008 32.8396 3.36999 35.5896 4.48999 34.3996C14.9438 23.2199 26.1788 12.797 38.11 3.20965C39.33 2.20965 35.22 -0.450354 34.11 0.429646H34.13Z" fill="white"/>
<path d="M6.33015 3.23989C14.7301 15.4099 26.7201 24.1399 38.6301 32.5999C41.0901 34.3599 44.1001 30.7699 41.4601 28.8999C30.2901 20.9999 18.7201 12.7499 10.8201 1.30989C10.4836 0.761104 9.9627 0.350044 9.35071 0.150322C8.73872 -0.0494 8.07561 -0.024739 7.48015 0.219889C6.43015 0.669889 5.58015 2.15989 6.33015 3.21989V3.23989Z" fill="white"/>
</g>
<defs>
<clipPath id="clip0">
<rect width="42.49" height="34.69" fill="white"/>
</clipPath>
</defs>
</svg>
