<svg width="117" height="68" viewBox="0 0 117 68" fill="none" xmlns="http://www.w3.org/2000/svg">
<path d="M64.7292 42.5532C63.8521 41.7049 61.1783 39.772 60.9378 42.3307C60.57 46.1688 62.3525 55.9864 58.8016 56.9459C55.5761 57.8081 48.3188 55.0964 45.4187 54.1647C37.6449 51.4232 30.5758 47.0423 24.7077 41.3294C17.0542 34.0149 9.62713 23.3767 8.4105 12.6274C8.37903 12.4202 8.33174 12.2157 8.26903 12.0155C14.1117 12.0155 19.9685 11.9321 25.8253 11.7513C30.0693 18.2593 34.6529 24.8786 40.2409 30.2602C41.0332 31.0251 43.9616 33.1388 44.0465 30.4827C44.2021 25.5183 42.2498 13.3644 47.4134 11.6122C51.5301 10.2216 57.3162 10.2216 62.3383 10.6666C62.5081 15.6311 62.6213 20.5816 62.3383 25.5322C62.2393 27.4929 64.998 35.628 68.2376 33.8758C75.9759 29.8013 82.3845 20.4704 87.2934 13.5174C87.5198 13.1836 88.4393 12.1268 88.7081 11.6679C89.5145 11.7652 91.8204 11.6679 92.4004 11.6679C96.9463 11.5937 101.497 11.552 106.052 11.5427C104.454 13.8789 102.572 16.0622 101.044 17.9256C97.4226 22.3616 93.4473 27.0618 88.6091 30.2463C86.0909 31.9151 89.5003 36.9908 90.7028 38.4092L104.85 55.013C97.6508 56.0682 90.302 55.4984 83.3604 53.3469C76.4189 51.1953 70.0668 47.5184 64.7858 42.5949L64.7292 42.5532ZM96.7152 37.5748C100.53 34.2362 104.007 30.5432 107.099 26.5473C110.777 22.0557 115.785 16.229 115.997 10.166C116.082 7.69073 114.073 1.68332 110.763 1.66941C103.322 1.66941 95.8947 1.66941 88.4535 1.80847C85.7231 1.80847 84.3084 1.53035 82.3845 3.11564C79.3853 5.60482 77.0652 10.2216 74.5612 13.2253C72.8353 15.3251 71.0387 17.5779 69.0581 19.6221C68.9732 16.0344 68.8318 12.4466 68.7186 8.85884C68.6479 6.38356 66.3561 1.6416 63.4701 1.32176C55.4064 0.431774 47.4841 1.62769 39.4204 2.03097C39.0452 2.03097 38.6854 2.17748 38.4201 2.43827C38.1548 2.69906 38.0057 3.05276 38.0057 3.42157C37.836 8.76149 37.6662 14.0875 37.5106 19.4274C33.6768 14.2961 30.706 8.539 26.3487 3.95C23.972 1.46082 22.3593 1.91972 19.0065 2.00316C13.4468 2.14222 7.88706 2.26737 2.3132 2.18394C0.573134 2.15612 0.742896 4.68702 1.77562 7.19011C1.76853 7.25947 1.76853 7.32935 1.77562 7.3987C5.31233 38.3536 34.95 65.1505 66.0731 67C66.4483 67 66.8082 66.8535 67.0735 66.5927C67.3388 66.3319 67.4878 65.9782 67.4878 65.6094C67.9122 61.2012 67.4878 56.8069 67.4878 52.4126C73.8224 57.766 81.3443 61.587 89.4511 63.5696C97.5579 65.5521 106.024 65.6411 114.172 63.8294C117.002 63.1897 112.758 56.4731 112.079 55.6666C106.958 49.6314 101.827 43.6054 96.6869 37.5887" fill="black"/>
</svg>
