<svg width="37" height="22" viewBox="0 0 37 22" fill="none" xmlns="http://www.w3.org/2000/svg">
<g>
<path d="M20.5024 13.8476C20.2202 13.5649 19.3601 12.9207 19.2827 13.7734C19.1644 15.0525 19.7378 18.3245 18.5955 18.6443C17.5579 18.9316 15.2232 18.0279 14.2902 17.7174C11.7894 16.8037 9.51525 15.3437 7.62749 13.4397C5.16538 11.002 2.77608 7.45658 2.38469 3.87411C2.37457 3.80507 2.35935 3.73691 2.33918 3.67019C4.21876 3.67019 6.10289 3.64239 7.98703 3.58214C9.35234 5.75109 10.8269 7.95711 12.6245 9.75066C12.8794 10.0056 13.8215 10.71 13.8488 9.82482C13.8988 8.1703 13.2708 4.11974 14.9319 3.53579C16.2563 3.07234 18.1177 3.07234 19.7333 3.22065C19.7879 4.87516 19.8243 6.52505 19.7333 8.17493C19.7014 8.8284 20.5889 11.5396 21.6311 10.9556C24.1205 9.59772 26.1821 6.48797 27.7613 4.17072C27.8341 4.05949 28.13 3.70727 28.2164 3.55433C28.4758 3.58677 29.2177 3.55433 29.4042 3.55433C30.8666 3.52961 32.3306 3.51571 33.796 3.51262C33.2817 4.29122 32.6764 5.01883 32.1849 5.63986C31.0199 7.11826 29.741 8.68473 28.1846 9.74603C27.3745 10.3022 28.4713 11.9938 28.8581 12.4665L33.4092 18.0001C31.0933 18.3518 28.7292 18.1619 26.4961 17.4448C24.263 16.7277 22.2195 15.5023 20.5206 13.8615L20.5024 13.8476ZM30.7923 12.1884C32.0194 11.0758 33.1381 9.84498 34.1328 8.51325C35.3161 7.01631 36.9271 5.07445 36.9954 3.0538C37.0227 2.22886 36.3764 0.226755 35.3115 0.22212C32.9177 0.22212 30.5284 0.22212 28.1345 0.268465C27.2562 0.268465 26.801 0.175775 26.1821 0.704109C25.2173 1.53369 24.4709 3.07234 23.6654 4.07339C23.1101 4.7732 22.5322 5.52399 21.895 6.20527C21.8677 5.00956 21.8222 3.81386 21.7858 2.61816C21.763 1.79322 21.0258 0.212851 20.0974 0.106258C17.5033 -0.190351 14.9547 0.208217 12.3606 0.342617C12.2399 0.342617 12.1241 0.391445 12.0388 0.478359C11.9534 0.565273 11.9055 0.683153 11.9055 0.806068C11.8509 2.58572 11.7963 4.36073 11.7462 6.14038C10.5129 4.43025 9.55714 2.51157 8.15541 0.982179C7.39084 0.152603 6.87202 0.305541 5.79342 0.333348C4.00486 0.379694 2.2163 0.421404 0.423188 0.393597C-0.13659 0.384328 -0.0819779 1.22781 0.250248 2.06202C0.247967 2.08513 0.247967 2.10842 0.250248 2.13154C1.38801 12.4479 10.9225 21.3786 20.9347 21.995C21.0555 21.995 21.1712 21.9462 21.2566 21.8593C21.3419 21.7724 21.3899 21.6545 21.3899 21.5316C21.5264 20.0624 21.3899 18.5979 21.3899 17.1334C23.4277 18.9176 25.8475 20.191 28.4555 20.8518C31.0634 21.5125 33.7871 21.5421 36.4083 20.9384C37.3185 20.7252 35.9532 18.4867 35.7347 18.2179C34.0873 16.2065 32.4368 14.1982 30.7832 12.193" fill="white"/>
</g>
</svg>
