<svg xmlns="http://www.w3.org/2000/svg" viewBox="0 0 88.2 41.92"><defs><style>.cls-1{fill:#1d1d1b;}</style></defs><title>Волна сверху</title><g id="Слой_2" data-name="Слой 2"><g id="Слой_1-2" data-name="Слой 1"><path class="cls-1" d="M2.48,4.76l65-.14,18.48,0c3.23,0,2.92-4.59-.19-4.58L20.77.15,2.28.19c-3.23,0-2.91,4.58.2,4.57Z"/><path class="cls-1" d="M17.2,26.41A534.24,534.24,0,0,1,80,25.64l-1.32-4.3a45.37,45.37,0,0,0-9.59.9c-2.78.56-.36,4.75,1.86,4.3a45.37,45.37,0,0,1,9.59-.9c1.1,0,1.39-1.31,1.14-2.12a3.12,3.12,0,0,0-2.47-2.17q-24.86-1.16-49.75-.06-7,.32-14.08.82c-1.21.08-1.45,1.47-1.05,2.4a3.1,3.1,0,0,0,2.91,1.9Z"/><path class="cls-1" d="M28.5,41.89a147.13,147.13,0,0,1,25.75-1.81A2.75,2.75,0,0,0,57.06,38a2,2,0,0,0-2-2.32,153.74,153.74,0,0,0-27,1.89,2.58,2.58,0,0,0-2.19,2.63,2.19,2.19,0,0,0,2.67,1.71Z"/></g></g></svg>