<svg xmlns="http://www.w3.org/2000/svg" viewBox="0 0 52.13 59.08"><defs><style>.cls-1{fill:#1d1d1b;}</style></defs><title>Волна в бок</title><g id="Слой_2" data-name="Слой 2"><g id="Слой_1-2" data-name="Слой 1"><path class="cls-1" d="M0,32,2.15,56.39c.13,1.41,4.22,4,4,1.9L4,33.86c-.12-1.42-4.22-4-4-1.91Z"/><path class="cls-1" d="M20.7,14.28,25.84,54c.1.78,4.76-.59,4.58-2L25.27,12.26c-.1-.78-4.76.59-4.57,2Z"/><path class="cls-1" d="M41.24,1.82q4.23,26.67,5.89,53.66c.14,2.34,5.14,2.18,5-.15q-1.65-27-5.88-53.66A2.31,2.31,0,0,0,43.69,0c-.86,0-2.64.62-2.45,1.82Z"/></g></g></svg>