<svg width="105" height="76" viewBox="0 0 105 76" fill="none" xmlns="http://www.w3.org/2000/svg">
<g clip-path="url(#clip0)">
<path d="M99.8251 64.3137C80.1911 64.2286 60.5571 65.193 40.923 65.4199C34.8505 65.4199 28.6658 65.7745 22.6073 65.4199C12.622 64.8668 12.622 56.1876 11.5982 48.1182C9.95735 34.5462 8.23236 21.0027 6.61957 7.44492C6.36713 5.31766 5.09092 1.48859 2.97325 0.524229C1.40252 -0.213222 -0.280393 -0.539402 9.31732e-05 2.11259C2.08972 19.3292 3.73056 36.7161 6.38115 53.8902C7.95188 63.9876 13.2811 74.0141 24.2621 75.3188C36.9962 76.8362 50.6839 75.4181 63.5302 74.9926C76.9234 74.553 90.3026 74.2835 103.71 74.3402C107.146 74.3402 103.177 64.3279 99.8532 64.3137" fill="black"/>
<path d="M11.0652 10.8911C30.3346 10.7351 49.7303 8.84889 68.9716 10.4231C74.0344 10.8343 79.0831 11.4441 84.1038 12.1816C87.3855 12.6496 90.6953 13.458 93.9208 13.7558C94.8558 11.0896 95.183 10.9336 94.9025 13.2878C94.9025 14.7059 94.9025 16.1241 94.8184 17.5423C94.4319 30.0099 93.2561 42.4396 91.2983 54.7552C90.8074 57.7901 97.1464 66.3275 97.8336 62.0588C100.092 48.0189 101.957 33.0855 101.508 18.8187C101.115 6.05508 92.252 4.01291 81.5093 2.41037C56.7284 -1.4187 32.256 0.666015 7.22258 0.878742C3.75857 0.907105 7.7555 10.9194 11.0652 10.8911Z" fill="black"/>
<path d="M38.9315 54.8972L41.1754 54.0605C41.5208 54.3619 41.9144 54.6017 42.3394 54.7696C44.0363 55.3369 44.457 54.1456 44.429 52.8267L75.9276 40.9566C79.041 39.7795 73.9922 31.9228 72.1831 31.2846L39.1839 19.5563C34.9766 18.1382 38.6089 28.0654 41.526 29.1148L59.407 35.4541L42.2552 41.9351C41.6241 38.9286 40.993 35.9079 40.3479 32.9014C39.9132 30.8166 38.2723 27.3421 36.1406 26.6188C34.0089 25.8956 33.8687 28.2497 34.2193 29.8948C35.201 34.5606 36.1687 39.2122 37.1504 43.878L33.8406 45.126C31.0358 46.1896 35.6358 56.1594 38.9735 54.8972" fill="black"/>
</g>
<defs>
<clipPath id="clip0">
<rect width="105" height="76" fill="white"/>
</clipPath>
</defs>
</svg>
