<svg width="33" height="22" viewBox="0 0 33 22" fill="none" xmlns="http://www.w3.org/2000/svg">
<g>
<path d="M31.3718 18.6178C25.2011 18.5932 19.0304 18.8724 12.8597 18.938C10.9512 18.938 9.00744 19.0407 7.10334 18.938C3.9651 18.7779 3.9651 16.2655 3.64334 13.9296C3.12765 10.0009 2.58551 6.08042 2.07863 2.1558C1.99929 1.54002 1.5982 0.431601 0.932642 0.152444C0.438987 -0.0610283 -0.0899302 -0.155449 -0.00177736 0.612232C0.654961 5.596 1.17065 10.629 2.0037 15.6005C2.49735 18.5234 4.17226 21.4258 7.62344 21.8035C11.6256 22.2428 15.9274 21.8322 19.9648 21.7091C24.1741 21.5818 28.379 21.5038 32.5927 21.5202C33.6726 21.5202 32.4252 18.6219 31.3806 18.6178" fill="white"/>
<path d="M3.47761 3.15347C9.53371 3.10831 15.6295 2.56232 21.6768 3.018C23.2679 3.13705 24.8547 3.31358 26.4326 3.52705C27.464 3.66252 28.5042 3.89652 29.5179 3.98273C29.8118 3.21094 29.9146 3.16579 29.8265 3.84726C29.8265 4.25778 29.8265 4.66831 29.8 5.07883C29.6786 8.68787 29.309 12.286 28.6937 15.851C28.5395 16.7295 30.5317 19.2009 30.7477 17.9652C31.4573 13.901 32.0435 9.57818 31.9025 5.4483C31.7791 1.75358 28.9934 1.16243 25.6172 0.698536C17.8289 -0.40988 10.1376 0.193591 2.26992 0.255169C1.18123 0.26338 2.43741 3.16168 3.47761 3.15347Z" fill="white"/>
<path d="M12.2356 15.8914L12.9408 15.6492C13.0494 15.7364 13.1731 15.8059 13.3066 15.8545C13.84 16.0187 13.9722 15.6738 13.9634 15.292L23.8629 11.856C24.8414 11.5152 23.2547 9.24092 22.6861 9.05618L12.3149 5.66114C10.9926 5.25062 12.1342 8.12429 13.051 8.42808L18.6707 10.2631L13.2802 12.1392C13.0819 11.2689 12.8835 10.3945 12.6808 9.52418C12.5441 8.92071 12.0284 7.91492 11.3585 7.70556C10.6885 7.49619 10.6444 8.17766 10.7546 8.65387C11.0632 10.0045 11.3673 11.351 11.6758 12.7016L10.6356 13.0629C9.75409 13.3708 11.1998 16.2568 12.2488 15.8914" fill="white"/>
</g>
</svg>
